<?xml version="1.0" encoding="UTF-8" standalone="no"?>
<svg width="24px" height="16px" viewBox="0 0 24 16" version="1.1" xmlns="http://www.w3.org/2000/svg" xmlns:xlink="http://www.w3.org/1999/xlink">
    <!-- Generator: Sketch 48.2 (47327) - http://www.bohemiancoding.com/sketch -->
    <title>water-icon</title>
    <desc>Created with Sketch.</desc>
    <defs></defs>
    <g id="recommended-wetsuit" stroke="none" stroke-width="1" fill="none" fill-rule="evenodd" transform="translate(-24.000000, -78.000000)">
        <g fill="#66B5FA" fill-rule="nonzero" id="water-temp">
            <g transform="translate(24.000000, 74.000000)">
                <g id="water-icon" transform="translate(0.000000, 4.000000)">
                    <path d="M0.4,3.825 C1.025,4.275 1.775,4.5 2.55,4.5 C3.875,4.5 5.025,3.825 5.7,2.8 C6.375,3.825 7.55,4.5 8.85,4.5 C10.15,4.5 11.325,3.825 12,2.8 C12.675,3.825 13.85,4.5 15.15,4.5 C16.45,4.5 17.625,3.825 18.3,2.8 C18.975,3.825 20.15,4.5 21.45,4.5 C22.225,4.5 22.975,4.275 23.6,3.825 C23.9,3.625 23.95,3.225 23.75,2.95 C23.55,2.65 23.15,2.6 22.875,2.8 C22.45,3.1 21.95,3.25 21.45,3.25 C20.075,3.25 18.925,2.125 18.925,0.725 C18.925,0.375 18.65,0.1 18.3,0.1 C17.95,0.1 17.675,0.375 17.675,0.725 C17.675,2.1 16.55,3.25 15.15,3.25 C13.775,3.25 12.625,2.125 12.625,0.725 C12.625,0.375 12.35,0.1 12,0.1 C11.65,0.1 11.375,0.375 11.375,0.725 C11.375,2.1 10.25,3.25 8.85,3.25 C7.475,3.25 6.325,2.125 6.325,0.725 C6.325,0.375 6.05,0.1 5.7,0.1 C5.35,0.1 5.075,0.375 5.075,0.725 C5.075,2.1 3.95,3.25 2.55,3.25 C2.05,3.25 1.55,3.1 1.125,2.8 C0.825,2.6 0.45,2.675 0.25,2.95 C0.05,3.225 0.1,3.625 0.4,3.825 Z" id="Shape"></path>
                    <path d="M22.875,8.5 C22.45,8.8 21.95,8.95 21.45,8.95 C20.075,8.95 18.925,7.825 18.925,6.425 C18.925,6.075 18.65,5.8 18.3,5.8 C17.95,5.8 17.675,6.075 17.675,6.425 C17.675,7.8 16.55,8.95 15.15,8.95 C13.775,8.95 12.625,7.825 12.625,6.425 C12.625,6.075 12.35,5.8 12,5.8 C11.65,5.8 11.375,6.075 11.375,6.425 C11.375,7.8 10.25,8.95 8.85,8.95 C7.475,8.95 6.325,7.825 6.325,6.425 C6.325,6.075 6.05,5.8 5.7,5.8 C5.35,5.8 5.075,6.075 5.075,6.425 C5.075,7.8 3.95,8.95 2.55,8.95 C2.05,8.95 1.55,8.8 1.125,8.5 C0.825,8.3 0.45,8.375 0.25,8.65 C0.05,8.95 0.125,9.325 0.4,9.525 C1.025,9.975 1.775,10.2 2.55,10.2 C3.875,10.2 5.025,9.525 5.7,8.5 C6.375,9.525 7.55,10.2 8.85,10.2 C10.15,10.2 11.325,9.525 12,8.5 C12.675,9.525 13.85,10.2 15.15,10.2 C16.45,10.2 17.625,9.525 18.3,8.5 C18.975,9.525 20.15,10.2 21.45,10.2 C22.225,10.2 22.975,9.975 23.6,9.525 C23.9,9.325 23.95,8.925 23.75,8.65 C23.575,8.375 23.175,8.3 22.875,8.5 Z" id="Shape"></path>
                    <path d="M22.875,14.225 C22.45,14.525 21.95,14.675 21.45,14.675 C20.075,14.675 18.925,13.55 18.925,12.15 C18.925,11.8 18.65,11.525 18.3,11.525 C17.95,11.525 17.675,11.8 17.675,12.15 C17.675,13.525 16.55,14.675 15.15,14.675 C13.775,14.675 12.625,13.55 12.625,12.15 C12.625,11.8 12.35,11.525 12,11.525 C11.65,11.525 11.375,11.8 11.375,12.15 C11.375,13.525 10.25,14.675 8.85,14.675 C7.475,14.675 6.325,13.55 6.325,12.15 C6.325,11.8 6.05,11.525 5.7,11.525 C5.35,11.525 5.075,11.8 5.075,12.15 C5.075,13.525 3.95,14.675 2.55,14.675 C2.05,14.675 1.55,14.525 1.125,14.225 C0.825,14.025 0.45,14.1 0.25,14.375 C0.05,14.675 0.125,15.05 0.4,15.25 C1.025,15.7 1.775,15.925 2.55,15.925 C3.875,15.925 5.025,15.25 5.7,14.225 C6.375,15.25 7.55,15.925 8.85,15.925 C10.15,15.925 11.325,15.25 12,14.225 C12.675,15.25 13.85,15.925 15.15,15.925 C16.45,15.925 17.625,15.25 18.3,14.225 C18.975,15.25 20.15,15.925 21.45,15.925 C22.225,15.925 22.975,15.7 23.6,15.25 C23.9,15.05 23.95,14.65 23.75,14.375 C23.575,14.075 23.175,14.025 22.875,14.225 Z" id="Shape"></path>
                </g>
            </g>
        </g>
    </g>
</svg>