<svg width="25" height="25" viewBox="0 0 25 25" fill="none" xmlns="http://www.w3.org/2000/svg">
<g clip-path="url(#clip0)">
<path d="M12.5516 8.6715C13.3733 9.44984 13.8625 10.3207 14.0491 11.2623C14.1025 11.5357 15.6091 11.2148 16.6691 11.9615C17.155 12.309 17.9016 12.7948 18.4925 13.8715C19.1591 13.0382 19.6841 11.9998 19.6841 10.8332C19.6841 8.24984 17.6841 6.1665 15.0166 6.1665C13.6008 6.1665 12.2933 6.864 11.46 7.86484C11.7933 8.0315 12.0025 8.19984 12.5516 8.6715Z" fill="#EFC319"/>
<path d="M21.9332 4.50004C21.9332 4.6667 21.8491 4.9167 21.7666 5.00004C21.3499 5.4167 20.9332 5.9167 20.4324 6.33337C20.1824 6.58337 19.8499 6.6667 19.5157 6.50004C19.0157 6.25004 18.9324 5.6667 19.3491 5.25004C19.6824 4.9167 19.9324 4.6667 20.2666 4.33337C20.4324 4.1667 20.5166 4.08337 20.6832 3.9167C20.9332 3.6667 21.1832 3.6667 21.5166 3.75004C21.7666 3.9167 21.9332 4.1667 21.9332 4.50004V4.50004Z" fill="#EFC319"/>
<path d="M22.85 10H23.7667C24.1833 10 24.5167 10.3333 24.5167 10.75C24.5167 11.1667 24.1833 11.5 23.7667 11.5H21.85C21.4333 11.5 21.1008 11.1667 21.1008 10.75C21.1008 10.3333 21.4333 10 21.85 10H22.85Z" fill="#EFC319"/>
<path d="M14.0999 2.74992V1.83325C14.0999 1.41659 14.4332 1.08325 14.8499 1.08325C15.2665 1.08325 15.599 1.33325 15.599 1.74992V3.74992C15.599 4.16659 15.2665 4.49992 14.8499 4.49992C14.4332 4.49992 14.0999 4.16659 14.0999 3.74992V2.74992Z" fill="#EFC319"/>
<path d="M8.51579 3.6665C8.76579 3.6665 8.93246 3.74984 9.09912 3.9165C9.26579 4.08317 9.51579 4.24984 9.68246 4.49984C10.015 4.83317 10.015 5.33317 9.68246 5.58317C9.43246 5.83317 8.93246 5.83317 8.59912 5.58317C8.34829 5.4165 8.18246 5.1665 8.01579 4.9165C7.76579 4.6665 7.76579 4.4165 7.93162 4.08317C8.01662 3.83317 8.26579 3.6665 8.51579 3.6665V3.6665Z" fill="#EFC319"/>
<path d="M21.1832 17.8333C21.0165 17.8333 20.8499 17.75 20.6832 17.6667C20.5165 17.5 20.3499 17.3333 20.0999 17.1667C19.7665 16.8333 19.6832 16.3333 20.0157 16C20.349 15.6667 20.849 15.6667 21.1824 16L21.7657 16.5833C22.0157 16.8333 22.0157 17.0833 21.9324 17.3333C21.7665 17.5833 21.5165 17.8333 21.1832 17.8333V17.8333Z" fill="#EFC319"/>
<path fill-rule="evenodd" clip-rule="evenodd" d="M13.6818 12.8767C13.461 12.8767 13.2393 12.8717 13.0185 12.8783C12.8593 12.8833 12.791 12.8167 12.766 12.6592C12.7093 12.28 12.666 11.8958 12.5643 11.5275C12.2751 10.47 11.6168 9.68999 10.6485 9.19749C9.52845 8.62666 8.35929 8.56916 7.21429 9.09916C5.91679 9.69916 5.15262 10.7292 4.96845 12.165C4.94762 12.3258 4.91262 12.4875 4.91012 12.65C4.90679 12.8167 4.81345 12.8442 4.67929 12.8667C4.29595 12.9308 3.90179 12.9658 3.53429 13.0833C2.25762 13.4917 1.41679 14.8842 1.59845 16.2125C1.75929 17.3917 2.39845 18.2008 3.48345 18.6533C3.75179 18.765 4.05679 18.795 4.34762 18.8442C4.47095 18.865 4.52262 18.915 4.52262 19.0333C4.52262 19.4125 4.52095 19.7917 4.52345 20.17C4.52512 20.3275 4.44429 20.365 4.30095 20.3575C3.55429 20.315 2.86012 20.1 2.21762 19.7233C1.06679 19.05 0.353454 18.045 0.0909535 16.7492C-0.40238 14.3183 1.13929 12.1275 3.28762 11.5517C3.46512 11.5042 3.53179 11.4233 3.57929 11.2525C4.14179 9.23249 5.44429 7.90249 7.45595 7.37333C9.96429 6.71333 12.436 7.84166 13.6426 10.065C13.8326 10.4142 13.9543 10.8025 14.0835 11.1808C14.1318 11.3225 14.1826 11.3717 14.3318 11.3692C15.5526 11.345 16.6185 11.7475 17.5126 12.5742C18.2993 13.3008 18.7493 14.215 18.8826 15.2725C19.081 16.8667 18.5768 18.2133 17.3801 19.2858C16.611 19.9742 15.6943 20.3208 14.661 20.3608C14.5001 20.3675 14.4426 20.3017 14.4451 20.1458C14.4518 19.79 14.4518 19.4342 14.4451 19.0792C14.4426 18.9308 14.4885 18.8633 14.6493 18.845C15.7776 18.7167 16.6135 18.1375 17.1168 17.1292C17.6926 15.9783 17.4176 14.6283 16.4935 13.73C15.8768 13.1308 15.1368 12.8767 14.2918 12.8783C14.0901 12.8775 13.8868 12.8767 13.6818 12.8767V12.8767Z" fill="#7F7F7F"/>
<path fill-rule="evenodd" clip-rule="evenodd" d="M9.59326 17.52C10.3916 18.3292 11.1699 19.13 11.5741 20.2092C12.0174 21.3909 11.2866 22.5859 10.2124 22.9117C9.02992 23.2725 7.80576 22.5734 7.52326 21.3959C7.39492 20.855 7.49409 20.3425 7.74159 19.8559C8.19742 18.9609 8.85826 18.2275 9.59326 17.52V17.52Z" fill="#3DBAE7"/>
</g>
<defs>
<clipPath id="clip0">
<rect width="25" height="25" fill="white"/>
</clipPath>
</defs>
</svg>
