<svg width="25" height="25" viewBox="0 0 25 25" fill="none" xmlns="http://www.w3.org/2000/svg">
<path fill-rule="evenodd" clip-rule="evenodd" d="M12.2448 19.026H7.43983C6.85983 19.026 6.294 18.9468 5.7465 18.7418C4.59066 18.306 3.72566 17.5468 3.20566 16.4226C2.5665 15.0401 2.57816 13.6543 3.309 12.3135C3.92566 11.1835 4.87316 10.4351 6.1315 10.1085C6.2615 10.0743 6.314 10.016 6.34483 9.88762C6.53566 9.10095 6.87816 8.38679 7.40316 7.76595C8.21233 6.81012 9.214 6.16345 10.4482 5.91179C11.7732 5.64179 13.0515 5.78762 14.2415 6.45429C15.579 7.20345 16.4857 8.31012 16.884 9.80595C16.9157 9.92345 16.9665 9.94929 17.0765 9.94679C17.8032 9.93012 18.5032 10.051 19.1632 10.3676C19.844 10.6926 20.4023 11.1643 20.8615 11.7568C21.5907 12.6985 21.8565 13.7726 21.7407 14.9451C21.5382 16.9985 19.9565 18.6635 17.9307 18.9651C17.6482 19.0068 17.3615 19.0218 17.0757 19.0226C15.4665 19.0285 13.8565 19.026 12.2448 19.026V19.026ZM12.2632 17.4551C13.8782 17.4551 15.4923 17.4576 17.1073 17.4526C17.344 17.4518 17.5865 17.4368 17.8198 17.3926C19.2132 17.1285 20.439 15.7601 20.209 14.0743C20.0173 12.6693 18.7698 11.5393 17.3482 11.5101C16.8273 11.5001 16.3057 11.506 15.784 11.5068C15.659 11.5068 15.5982 11.4585 15.5865 11.3293C15.5707 11.151 15.5357 10.9735 15.5157 10.796C15.4065 9.86679 15.034 9.06762 14.3532 8.42095C13.3582 7.47345 12.1723 7.16345 10.834 7.39762C10.1407 7.51929 9.53816 7.84012 9.01483 8.30679C8.439 8.81929 8.03316 9.44262 7.85566 10.1976C7.77066 10.5535 7.7265 10.9193 7.6715 11.281C7.6565 11.3768 7.61316 11.421 7.51733 11.4343C7.25483 11.4676 6.9915 11.5001 6.7315 11.5468C6.02233 11.6751 5.449 12.0318 4.98483 12.581C3.98483 13.7618 4.11316 15.6035 5.25733 16.6451C5.86733 17.201 6.5765 17.456 7.3915 17.456C9.01566 17.4551 10.639 17.4551 12.2632 17.4551V17.4551Z" fill="#7F7F7F"/>
</svg>
