<?xml version="1.0" encoding="UTF-8" standalone="no"?>
<svg width="32px" height="32px" viewBox="0 0 32 32" version="1.1" xmlns="http://www.w3.org/2000/svg" xmlns:xlink="http://www.w3.org/1999/xlink">
    <!-- Generator: Sketch 43.2 (39069) - http://www.bohemiancoding.com/sketch -->
    <title>MOSTLY_CLOUDY_NO_RAIN</title>
    <desc>Created with Sketch.</desc>
    <defs>
        <polyline id="path-1" points="0 0.049 30.91 0.049 30.91 25 0 25"></polyline>
        <polyline id="path-3" points="0 0.049 30.91 0.049 30.91 25 0 25"></polyline>
    </defs>
    <g id="DAY-WEATHER" stroke="none" stroke-width="1" fill="none" fill-rule="evenodd">
        <g id="MOSTLY_CLOUDY_NO_RAIN">
            <g id="Page-1" transform="translate(0.000000, 3.000000)">
                <g id="Group-3">
                    <mask id="mask-2" fill="white">
                        <use xlink:href="#path-1"></use>
                    </mask>
                    <g id="Clip-2"></g>
                    <path d="M25.7433,13.598 C25.7433,9.456 22.3853,6.098 18.2433,6.098 C15.4353,6.098 12.9923,7.644 11.7063,9.928 C10.9993,9.682 10.2423,9.542 9.4513,9.542 C5.6543,9.542 2.5763,12.62 2.5763,16.417 C2.5763,20.214 5.6543,23.292 9.4513,23.292 C10.4803,23.292 11.4523,23.059 12.3293,22.654 C13.5213,24.087 15.3173,25 17.3263,25 C19.3483,25 21.1543,24.077 22.3463,22.629 C23.2563,23.43 24.4363,23.931 25.7433,23.931 C28.5973,23.931 30.9103,21.618 30.9103,18.765 C30.9103,15.911 28.5973,13.598 25.7433,13.598" id="Fill-1" fill="#DDDDDD" mask="url(#mask-2)"></path>
                </g>
                <g id="Group-6">
                    <mask id="mask-4" fill="white">
                        <use xlink:href="#path-3"></use>
                    </mask>
                    <g id="Clip-5"></g>
                    <path d="M1.8495,11.8607 C3.4035,9.2787 6.2245,7.5417 9.4515,7.5417 C9.9155,7.5417 10.3795,7.5787 10.8385,7.6527 C12.6255,5.4297 15.3445,4.0977 18.2435,4.0977 C18.2795,4.0977 18.3135,4.1027 18.3495,4.1027 C17.4825,3.0807 16.2035,2.4177 14.7585,2.4177 C14.2145,2.4177 13.6935,2.5137 13.2075,2.6827 C12.3235,1.1117 10.6425,0.0487 8.7115,0.0487 C5.8625,0.0487 3.5535,2.3587 3.5535,5.2077 C1.5905,5.2077 -0.0005,6.7977 -0.0005,8.7607 C-0.0005,10.1017 0.7525,11.2557 1.8495,11.8607" id="Fill-4" fill="#B2B2B2" mask="url(#mask-4)"></path>
                </g>
            </g>
        </g>
    </g>
</svg>