<svg width="25" height="25" viewBox="0 0 25 25" fill="none" xmlns="http://www.w3.org/2000/svg">
<path fill-rule="evenodd" clip-rule="evenodd" d="M12.464 18.0183H7.58314C6.99397 18.0183 6.41897 17.9383 5.86314 17.7283C4.68897 17.2858 3.81064 16.5158 3.2823 15.3741C2.63314 13.9699 2.6448 12.5624 3.3873 11.1999C4.01314 10.0516 4.97564 9.29243 6.25397 8.96076C6.38647 8.92576 6.4398 8.86659 6.47147 8.73576C6.66397 7.93742 7.0123 7.21159 7.54564 6.58076C8.36647 5.60993 9.3848 4.95243 10.639 4.69743C11.9848 4.42493 13.2831 4.57243 14.4915 5.24993C15.8498 6.01159 16.7698 7.13492 17.1756 8.65492C17.2081 8.77409 17.2598 8.79993 17.3706 8.79743C18.1098 8.78159 18.819 8.90409 19.4906 9.22492C20.1815 9.55492 20.7498 10.0341 21.2148 10.6366C21.9548 11.5924 22.2256 12.6833 22.1081 13.8749C21.9023 15.9599 20.2956 17.6508 18.2373 17.9566C17.9506 17.9991 17.659 18.0141 17.369 18.0158C15.7348 18.0208 14.0998 18.0183 12.464 18.0183V18.0183Z" fill="#7F7F7F"/>
<path fill-rule="evenodd" clip-rule="evenodd" d="M13.4133 15.4717C14.2117 16.2808 14.99 17.0817 15.3942 18.1608C15.8375 19.3425 15.1067 20.5375 14.0325 20.8633C12.85 21.2242 11.6258 20.525 11.3433 19.3475C11.215 18.8067 11.3142 18.2942 11.5617 17.8075C12.0175 16.9125 12.6783 16.1792 13.4133 15.4717Z" fill="#3DBAE7"/>
<path fill-rule="evenodd" clip-rule="evenodd" d="M9.87747 13.0435C10.295 13.4051 10.59 13.8568 10.8408 14.3393C10.9383 14.5235 11.0283 14.7168 11.0866 14.9151C11.3333 15.7543 10.6633 16.5535 9.79414 16.4701C9.10914 16.4043 8.66581 15.9935 8.57831 15.3351C8.54081 15.051 8.64997 14.796 8.76914 14.5493C9.04414 13.9801 9.44081 13.501 9.87747 13.0435Z" fill="#3DBAE7"/>
<path fill-rule="evenodd" clip-rule="evenodd" d="M13.5533 11.3184C13.795 11.6825 14.0567 12.0075 14.2425 12.3717C14.5108 12.9017 14.2717 13.4525 13.7475 13.595C13.3908 13.6934 13.075 13.605 12.8308 13.3209C12.605 13.0617 12.575 12.77 12.7133 12.4567C12.8992 12.0342 13.1675 11.6717 13.5533 11.3184Z" fill="#3DBAE7"/>
</svg>
