<svg width="25" height="25" viewBox="0 0 25 25" fill="none" xmlns="http://www.w3.org/2000/svg">
<path fill-rule="evenodd" clip-rule="evenodd" d="M16.1815 11.0017C15.9606 11.0017 15.739 10.9958 15.5181 11.0042C15.3598 11.0092 15.2906 10.9425 15.2656 10.7842C15.2098 10.405 15.1656 10.0208 15.0648 9.65333C14.7748 8.59499 14.1173 7.81583 13.149 7.32333C12.0281 6.75249 10.859 6.69499 9.71481 7.22499C8.41731 7.82583 7.65231 8.85499 7.46898 10.2908C7.44815 10.4517 7.41398 10.6133 7.41065 10.775C7.40731 10.9417 7.31398 10.9692 7.17981 10.9917C6.79648 11.0558 6.40231 11.0908 6.03565 11.2083C4.75815 11.6167 3.91815 13.0092 4.09898 14.3383C4.25982 15.5167 4.89982 16.3267 5.98481 16.7792C6.25231 16.8908 6.55815 16.9208 6.84898 16.97C6.97231 16.9908 7.02398 17.0408 7.02398 17.1592C7.02398 17.5383 7.02231 17.9175 7.02565 18.295C7.02731 18.4525 6.94565 18.49 6.80231 18.4825C6.05565 18.44 5.36148 18.225 4.71898 17.8492C3.56815 17.175 2.85565 16.17 2.59315 14.8742C2.09898 12.4433 3.64148 10.2525 5.78981 9.67749C5.96731 9.62916 6.03398 9.54916 6.08148 9.37833C6.64398 7.35749 7.94648 6.02833 9.95815 5.49833C12.4665 4.83833 14.9373 5.96666 16.1448 8.18999C16.3348 8.53999 16.4565 8.92749 16.5856 9.30666C16.634 9.44833 16.6848 9.49749 16.834 9.49416C18.0548 9.47083 19.1206 9.87249 20.0148 10.6992C20.8015 11.4258 21.2515 12.3408 21.3848 13.3975C21.5831 14.9917 21.079 16.3383 19.8823 17.41C19.1131 18.0983 18.1965 18.445 17.1631 18.485C17.0023 18.4917 16.9448 18.4258 16.9473 18.2692C16.954 17.9142 16.954 17.5575 16.9473 17.2033C16.9448 17.055 16.9906 16.9867 17.1515 16.9692C18.2798 16.8408 19.1156 16.2625 19.619 15.2533C20.1948 14.1025 19.9198 12.7533 18.9956 11.855C18.379 11.255 17.639 11.0008 16.794 11.0033C16.5898 11.0025 16.3865 11.0017 16.1815 11.0017V11.0017Z" fill="#7F7F7F"/>
<path fill-rule="evenodd" clip-rule="evenodd" d="M12.0935 15.2983C12.8918 16.1075 13.6702 16.9083 14.0735 17.9875C14.5177 19.1692 13.7868 20.3642 12.7127 20.69C11.5302 21.0508 10.306 20.3517 10.0235 19.1742C9.89517 18.6333 9.99434 18.1208 10.2418 17.6342C10.6977 16.7392 11.3585 16.0058 12.0935 15.2983V15.2983Z" fill="#3DBAE7"/>
</svg>
