<svg width="25" height="25" viewBox="0 0 25 25" fill="none" xmlns="http://www.w3.org/2000/svg">
<g clip-path="url(#clip0)">
<path d="M12.8851 8.55603C13.7076 9.33436 14.1968 10.2052 14.3826 11.1469C14.436 11.4202 15.9426 11.0994 17.0026 11.846C17.4885 12.1935 18.2351 12.6794 18.826 13.756C19.4926 12.9227 20.0176 11.8844 20.0176 10.7177C20.0176 8.13436 18.0176 6.05103 15.3501 6.05103C13.9343 6.05103 12.6268 6.74853 11.7935 7.74936C12.1268 7.91519 12.336 8.08353 12.8851 8.55603V8.55603Z" fill="#EFC319"/>
<path d="M22.2675 4.38358C22.2675 4.55025 22.1833 4.80025 22.1008 4.88358C21.6841 5.30025 21.2675 5.80025 20.7666 6.21691C20.5166 6.46691 20.1841 6.55025 19.85 6.38358C19.35 6.13358 19.2666 5.55025 19.6833 5.13358C20.0166 4.80025 20.2666 4.55025 20.6008 4.21691C20.7666 4.05025 20.8508 3.96691 21.0175 3.80025C21.2675 3.55025 21.5175 3.55025 21.8508 3.63358C22.1008 3.80108 22.2675 4.05025 22.2675 4.38358V4.38358Z" fill="#EFC319"/>
<path d="M23.1835 9.88354H24.1002C24.5168 9.88354 24.8502 10.2169 24.8502 10.6335C24.8502 11.0502 24.5168 11.3835 24.1002 11.3835H22.1835C21.7668 11.3835 21.4343 11.0502 21.4343 10.6335C21.4343 10.2169 21.7668 9.88354 22.1835 9.88354H23.1835Z" fill="#EFC319"/>
<path d="M14.4333 2.63346V1.7168C14.4333 1.30013 14.7667 0.966797 15.1833 0.966797C15.6 0.966797 15.9325 1.2168 15.9325 1.63346V3.63346C15.9325 4.05013 15.6 4.38346 15.1833 4.38346C14.7667 4.38346 14.4333 4.05013 14.4333 3.63346V2.63346Z" fill="#EFC319"/>
<path d="M8.85004 3.55005C9.09921 3.55005 9.26671 3.63338 9.43255 3.80005C9.59921 3.96672 9.85005 4.13338 10.0159 4.38338C10.3492 4.71672 10.3492 5.21671 10.0159 5.46671C9.76671 5.71671 9.26671 5.71671 8.93254 5.46671C8.68171 5.30005 8.51588 5.05005 8.35005 4.80005C8.09921 4.55005 8.09921 4.30005 8.26505 3.96672C8.35005 3.71672 8.59921 3.55005 8.85004 3.55005V3.55005Z" fill="#EFC319"/>
<path d="M21.5167 17.7169C21.35 17.7169 21.1834 17.6335 21.0167 17.5502C20.85 17.3835 20.6834 17.2169 20.4334 17.0502C20.1 16.7169 20.0167 16.2169 20.3492 15.8835C20.6825 15.5502 21.1825 15.5502 21.5159 15.8835L22.0992 16.4669C22.3492 16.7169 22.3492 16.9669 22.2659 17.2169C22.1009 17.4669 21.8509 17.7169 21.5167 17.7169V17.7169Z" fill="#EFC319"/>
<path fill-rule="evenodd" clip-rule="evenodd" d="M9.65172 20.345C8.02505 20.345 6.39755 20.3459 4.77088 20.345C4.18172 20.345 3.60672 20.265 3.05088 20.0559C1.87672 19.6134 0.998382 18.8425 0.470048 17.7009C-0.179118 16.2967 -0.167452 14.8884 0.575048 13.5275C1.20088 12.3792 2.16338 11.62 3.44172 11.2884C3.57422 11.2534 3.62755 11.1942 3.65921 11.0634C3.85172 10.265 4.20005 9.53921 4.73338 8.90837C5.55422 7.93754 6.57255 7.28004 7.82672 7.02504C9.17255 6.75088 10.4709 6.89921 11.6792 7.57587C13.0367 8.33754 13.9575 9.46087 14.3634 10.98C14.3959 11.0992 14.4475 11.1259 14.5584 11.1225C15.2975 11.1067 16.0067 11.2284 16.6784 11.55C17.3692 11.88 17.9375 12.3592 18.4025 12.9617C19.1425 13.9175 19.4134 15.0084 19.2959 16.1992C19.09 18.2842 17.4834 19.9759 15.425 20.2817C15.1384 20.3242 14.8467 20.3392 14.5567 20.3409C12.9225 20.3475 11.2875 20.345 9.65172 20.345Z" fill="#7F7F7F"/>
<path fill-rule="evenodd" clip-rule="evenodd" d="M10.6692 17.7283C11.4675 18.5374 12.2459 19.3383 12.65 20.4174C13.0934 21.5991 12.3625 22.7941 11.2884 23.1199C10.1059 23.4808 8.88169 22.7816 8.59919 21.6041C8.47085 21.0633 8.57002 20.5508 8.81752 20.0641C9.27335 19.1691 9.93419 18.4358 10.6692 17.7283V17.7283Z" fill="#3DBAE7"/>
<path fill-rule="evenodd" clip-rule="evenodd" d="M7.13333 15.3C7.55083 15.6617 7.84583 16.1134 8.09667 16.5959C8.19417 16.78 8.28417 16.9734 8.3425 17.1717C8.58917 18.0109 7.91917 18.81 7.05 18.7267C6.365 18.6617 5.92167 18.25 5.83417 17.5917C5.79667 17.3075 5.90583 17.0525 6.025 16.8059C6.3 16.2367 6.6975 15.7575 7.13333 15.3V15.3Z" fill="#3DBAE7"/>
<path fill-rule="evenodd" clip-rule="evenodd" d="M10.8092 13.575C11.0509 13.9391 11.3125 14.2641 11.4984 14.6283C11.7667 15.1583 11.5275 15.7091 11.0034 15.8516C10.6467 15.95 10.3309 15.8616 10.0867 15.5775C9.86085 15.3183 9.83085 15.0266 9.96918 14.7133C10.1559 14.2908 10.4234 13.9283 10.8092 13.575Z" fill="#3DBAE7"/>
</g>
<defs>
<clipPath id="clip0">
<rect width="25" height="25" fill="white"/>
</clipPath>
</defs>
</svg>
