<svg width="25" height="25" viewBox="0 0 25 25" fill="none" xmlns="http://www.w3.org/2000/svg">
<path d="M14.7502 7.24992C14.7502 7.91658 14.2493 8.41575 13.5835 8.41575H4.50016C3.8335 8.41658 3.3335 7.91658 3.3335 7.24992C3.3335 6.58325 3.8335 6.08325 4.50016 6.08325H13.5835C14.2502 6.08325 14.7502 6.58325 14.7502 7.24992Z" fill="#CECECE"/>
<path d="M20.417 10.9998C20.417 11.6665 19.917 12.1657 19.2503 12.1657H6.08366C5.41699 12.1657 4.91699 11.6657 4.91699 10.9998C4.91699 10.3332 5.41699 9.83316 6.08366 9.83316H19.167C19.8337 9.74982 20.417 10.3332 20.417 10.9998Z" fill="#CECECE"/>
<path d="M4.16699 18.2499C4.16699 17.5824 4.66699 17.0833 5.33366 17.0833H20.2503C20.917 17.0833 21.417 17.5833 21.417 18.2499C21.417 18.9166 20.9162 19.4158 20.2503 19.4158H5.33366C4.66699 19.4999 4.16699 18.9166 4.16699 18.2499V18.2499Z" fill="#CECECE"/>
<path d="M3.0835 14.5832C3.0835 13.9165 3.5835 13.4165 4.25016 13.4165H16.8335C17.5002 13.4165 17.9993 13.9173 17.9993 14.5832C17.9993 15.2498 17.4993 15.7498 16.8335 15.7498H4.25016C3.5835 15.8332 3.0835 15.2498 3.0835 14.5832V14.5832Z" fill="#CECECE"/>
</svg>
