<svg width="25" height="25" viewBox="0 0 25 25" fill="none" xmlns="http://www.w3.org/2000/svg">
<path fill-rule="evenodd" clip-rule="evenodd" d="M12.6725 18.1916H7.79163C7.20247 18.1916 6.62747 18.1116 6.07163 17.9016C4.89747 17.4591 4.01913 16.6891 3.4908 15.5474C2.84163 14.1432 2.8533 12.7357 3.5958 11.3732C4.22163 10.2249 5.18413 9.46575 6.46247 9.13408C6.59497 9.09908 6.6483 9.03991 6.67997 8.90908C6.87247 8.11075 7.2208 7.38491 7.75413 6.75408C8.57497 5.78324 9.5933 5.12574 10.8475 4.87074C12.1933 4.59658 13.4916 4.74491 14.7 5.42158C16.0583 6.18325 16.9783 7.30658 17.3841 8.82658C17.4166 8.94575 17.4683 8.97158 17.5791 8.96908C18.3183 8.95324 19.0275 9.07575 19.6991 9.39658C20.39 9.72658 20.9583 10.2057 21.4233 10.8082C22.1633 11.7641 22.4341 12.8549 22.3166 14.0466C22.1108 16.1316 20.5041 17.8224 18.4458 18.1282C18.1591 18.1707 17.8675 18.1857 17.5775 18.1874C15.9433 18.1941 14.3083 18.1916 12.6725 18.1916Z" fill="#7F7F7F"/>
<path fill-rule="evenodd" clip-rule="evenodd" d="M12.0541 11.5583C12.5083 12.0183 12.95 12.4725 13.1791 13.085C13.4308 13.7567 13.0166 14.4342 12.4066 14.62C11.7341 14.8242 11.0391 14.4283 10.88 13.7592C10.8066 13.4525 10.8625 13.1608 11.0033 12.885C11.2625 12.3767 11.6375 11.9608 12.0541 11.5583V11.5583Z" fill="#3DBAE7"/>
<path fill-rule="evenodd" clip-rule="evenodd" d="M12.1345 9.19995C12.272 9.40662 12.4212 9.59162 12.5262 9.79828C12.6795 10.0991 12.5437 10.4116 12.2453 10.4933C12.0428 10.5483 11.8637 10.4983 11.7253 10.3366C11.597 10.1891 11.5803 10.0241 11.6587 9.84578C11.7645 9.60662 11.9153 9.40078 12.1345 9.19995V9.19995Z" fill="#3DBAE7"/>
<path fill-rule="evenodd" clip-rule="evenodd" d="M16.851 18.075C17.6501 18.8841 18.4285 19.685 18.8318 20.7641C19.276 21.9458 18.5451 23.1408 17.471 23.4675C16.2876 23.8275 15.0635 23.1291 14.7818 21.9508C14.6535 21.4108 14.7526 20.8975 15.0001 20.4108C15.456 19.5158 16.1168 18.7833 16.851 18.075Z" fill="#3DBAE7"/>
<path fill-rule="evenodd" clip-rule="evenodd" d="M13.3159 15.6465C13.7326 16.0082 14.0284 16.4607 14.2793 16.9423C14.3768 17.1265 14.4668 17.3198 14.5251 17.5182C14.7709 18.3582 14.1018 19.1573 13.2326 19.074C12.5476 19.0073 12.1034 18.5973 12.0168 17.9382C11.9793 17.6548 12.0884 17.3998 12.2076 17.1523C12.4826 16.584 12.8793 16.104 13.3159 15.6465Z" fill="#3DBAE7"/>
<path fill-rule="evenodd" clip-rule="evenodd" d="M16.991 13.9216C17.2335 14.2866 17.4951 14.6116 17.681 14.975C17.9493 15.5058 17.7101 16.0558 17.186 16.1991C16.8293 16.2966 16.5135 16.2091 16.2693 15.9241C16.0435 15.665 16.0135 15.3741 16.1518 15.06C16.3376 14.6375 16.6051 14.275 16.991 13.9216V13.9216Z" fill="#3DBAE7"/>
<path fill-rule="evenodd" clip-rule="evenodd" d="M7.89188 16.6807C8.73855 17.5373 9.56271 18.3832 9.98771 19.5248C10.4577 20.7765 9.68438 22.0398 8.54938 22.3857C7.29688 22.7657 6.00188 22.0273 5.70438 20.7807C5.56771 20.2082 5.67105 19.6657 5.93521 19.1523C6.41855 18.204 7.11605 17.4298 7.89188 16.6807Z" fill="#3DBAE7"/>
<path fill-rule="evenodd" clip-rule="evenodd" d="M9.38377 14.1533C9.67377 14.4058 9.88211 14.72 10.0554 15.0567C10.1238 15.185 10.1879 15.32 10.2279 15.4583C10.3996 16.0442 9.93211 16.6008 9.32627 16.5433C8.84877 16.4967 8.53877 16.2117 8.47877 15.7517C8.45294 15.5542 8.52877 15.3758 8.61044 15.2033C8.80211 14.8075 9.08044 14.4725 9.38377 14.1533V14.1533Z" fill="#3DBAE7"/>
<path fill-rule="evenodd" clip-rule="evenodd" d="M15.2252 11.2417C15.3944 11.4959 15.5769 11.7225 15.7069 11.9767C15.8944 12.3459 15.7261 12.73 15.3611 12.83C15.1127 12.8975 14.8927 12.8359 14.7227 12.6384C14.5652 12.4575 14.5444 12.2542 14.6402 12.035C14.7711 11.7417 14.9561 11.4884 15.2252 11.2417V11.2417Z" fill="#3DBAE7"/>
</svg>
