<svg width="25" height="25" viewBox="0 0 25 25" fill="none" xmlns="http://www.w3.org/2000/svg">
<path d="M21.1666 9.00008C18.8333 9.00008 16.9166 7.08341 16.9166 4.75008C16.9166 4.00008 17.0833 3.25008 17.4174 2.66675C15.0833 2.66675 13.0841 4.25008 12.3333 6.33341C12.7499 6.41675 13.2499 6.58341 13.6666 6.83341C14.9999 7.58341 15.9158 8.66675 16.3324 10.1667C16.3324 10.2501 16.4166 10.3334 16.4991 10.3334C17.2491 10.3334 17.9158 10.4167 18.5824 10.7501C19.2491 11.0834 19.8324 11.5834 20.2491 12.1667C20.3333 12.2501 20.3333 12.3334 20.4158 12.3334C21.5824 11.5001 22.4158 10.2501 22.6658 8.75008C22.1666 8.83341 21.6666 9.00008 21.1666 9.00008V9.00008Z" fill="#BFBFBF"/>
<path fill-rule="evenodd" clip-rule="evenodd" d="M15.9732 11.7309C15.7524 11.7309 15.5307 11.7259 15.3099 11.7326C15.1516 11.7376 15.0824 11.6709 15.0574 11.5134C15.0016 11.1342 14.9574 10.7501 14.8566 10.3817C14.5666 9.32424 13.9091 8.54424 12.9407 8.05174C11.8199 7.48091 10.6507 7.42341 9.50656 7.95341C8.20906 8.55341 7.44406 9.58341 7.26073 11.0192C7.2399 11.1801 7.20573 11.3417 7.2024 11.5042C7.19906 11.6709 7.10573 11.6984 6.97156 11.7209C6.58823 11.7851 6.19406 11.8201 5.8274 11.9376C4.5499 12.3459 3.7099 13.7384 3.89073 15.0667C4.05156 16.2459 4.69156 17.0551 5.77656 17.5076C6.04406 17.6192 6.3499 17.6492 6.64073 17.6984C6.76406 17.7192 6.81573 17.7692 6.81573 17.8876C6.81573 18.2667 6.81406 18.6459 6.8174 19.0242C6.81906 19.1817 6.7374 19.2192 6.59406 19.2117C5.8474 19.1692 5.15323 18.9542 4.51073 18.5776C3.3599 17.9042 2.6474 16.8992 2.3849 15.6034C1.89073 13.1726 3.43323 10.9817 5.58156 10.4059C5.75906 10.3584 5.82573 10.2776 5.87323 10.1067C6.43573 8.08674 7.73823 6.75674 9.7499 6.22758C12.2582 5.56758 14.7291 6.69591 15.9366 8.91924C16.1266 9.26841 16.2482 9.65674 16.3774 10.0351C16.4257 10.1767 16.4766 10.2259 16.6257 10.2234C17.8466 10.1992 18.9124 10.6017 19.8066 11.4284C20.5932 12.1551 21.0432 13.0692 21.1766 14.1267C21.3749 15.7209 20.8707 17.0676 19.6741 18.1401C18.9049 18.8284 17.9882 19.1751 16.9549 19.2151C16.7941 19.2217 16.7366 19.1559 16.7391 19.0001C16.7457 18.6442 16.7457 18.2884 16.7391 17.9334C16.7366 17.7851 16.7824 17.7176 16.9432 17.6992C18.0716 17.5709 18.9074 16.9917 19.4107 15.9834C19.9866 14.8326 19.7116 13.4826 18.7874 12.5842C18.1707 11.9851 17.4307 11.7309 16.5857 11.7326C16.3816 11.7317 16.1782 11.7309 15.9732 11.7309V11.7309Z" fill="#7F7F7F"/>
<path fill-rule="evenodd" clip-rule="evenodd" d="M11.8508 15.9924C12.6492 16.8016 13.4275 17.6024 13.8317 18.6816C14.275 19.8633 13.5442 21.0583 12.47 21.3841C11.2875 21.7449 10.0633 21.0458 9.78083 19.8683C9.65249 19.3274 9.75166 18.8149 9.99916 18.3283C10.455 17.4333 11.1158 16.6999 11.8508 15.9924V15.9924Z" fill="#3DBAE7"/>
</svg>
