<svg width="25" height="25" viewBox="0 0 25 25" fill="none" xmlns="http://www.w3.org/2000/svg">
<path d="M20.8751 10.2325C18.5417 10.2325 16.6251 8.31584 16.6251 5.9825C16.6251 5.2325 16.7917 4.4825 17.1251 3.89917C14.7917 3.89917 12.7917 5.4825 12.0417 7.56584C12.4584 7.64917 12.9584 7.81584 13.3751 8.06584C14.7092 8.81584 15.6251 9.89917 16.0417 11.3992C16.0417 11.4825 16.1251 11.5658 16.2084 11.5658C16.9576 11.5658 17.6251 11.6492 18.2917 11.9825C18.9584 12.3158 19.5417 12.8158 19.9584 13.3992C20.0417 13.4825 20.0417 13.5658 20.1251 13.5658C21.2909 12.7325 22.1242 11.4825 22.3742 9.9825C21.8751 10.1492 21.3751 10.2325 20.8751 10.2325V10.2325Z" fill="#BFBFBF"/>
<path fill-rule="evenodd" clip-rule="evenodd" d="M11.4467 20.6226H6.64174C6.0609 20.6226 5.4959 20.5435 4.9484 20.3385C3.79174 19.9026 2.92757 19.1435 2.40757 18.0193C1.7684 16.6368 1.78007 15.251 2.5109 13.9101C3.12757 12.7801 4.07507 12.0318 5.3334 11.7051C5.4634 11.671 5.51674 11.6126 5.54757 11.4843C5.7384 10.6976 6.0809 9.98347 6.6059 9.36263C7.41507 8.4068 8.41674 7.76013 9.6509 7.50847C10.9759 7.23847 12.2542 7.3843 13.4442 8.05097C14.7817 8.80013 15.6884 9.9068 16.0867 11.4026C16.1184 11.5201 16.1692 11.546 16.2792 11.5435C17.0059 11.5268 17.7059 11.6476 18.3659 11.9643C19.0467 12.2893 19.6051 12.761 20.0642 13.3535C20.7934 14.2951 21.0592 15.3693 20.9434 16.5418C20.7409 18.5951 19.1592 20.2601 17.1334 20.5618C16.8509 20.6035 16.5642 20.6185 16.2784 20.6193C14.6684 20.626 13.0584 20.6226 11.4467 20.6226V20.6226ZM11.4651 19.0526C13.0801 19.0526 14.6942 19.0551 16.3092 19.0501C16.5459 19.0493 16.7884 19.0343 17.0217 18.9901C18.4151 18.726 19.6409 17.3576 19.4109 15.6718C19.2192 14.2668 17.9717 13.1368 16.5501 13.1076C16.0292 13.0976 15.5076 13.1035 14.9859 13.1043C14.8609 13.1043 14.8001 13.056 14.7884 12.9268C14.7726 12.7485 14.7376 12.571 14.7176 12.3935C14.6084 11.4643 14.2359 10.6651 13.5551 10.0185C12.5601 9.07097 11.3742 8.76097 10.0359 8.99513C9.34257 9.1168 8.74007 9.43763 8.21674 9.9043C7.6409 10.4168 7.23424 11.0401 7.05674 11.7951C6.97174 12.151 6.9284 12.5168 6.87257 12.8785C6.85757 12.9743 6.81424 13.0185 6.71757 13.0318C6.4559 13.0651 6.19174 13.0976 5.93257 13.1443C5.2234 13.2726 4.65007 13.6293 4.18507 14.1785C3.1884 15.3593 3.31674 17.2001 4.46174 18.2418C5.0709 18.7976 5.78007 19.0526 6.5959 19.0526C8.21757 19.0518 9.8409 19.0526 11.4651 19.0526V19.0526Z" fill="#7F7F7F"/>
</svg>
