<svg width="25" height="25" viewBox="0 0 25 25" fill="none" xmlns="http://www.w3.org/2000/svg">
<path fill-rule="evenodd" clip-rule="evenodd" d="M12.256 19.5466H7.37513C6.78596 19.5466 6.21096 19.4666 5.65513 19.2566C4.48096 18.8141 3.60263 18.0441 3.0743 16.9024C2.42513 15.4982 2.4368 14.0907 3.1793 12.7282C3.80513 11.5799 4.76763 10.8207 6.04596 10.4891C6.17846 10.4541 6.2318 10.3949 6.26346 10.2641C6.45596 9.46573 6.8043 8.73989 7.33763 8.10906C8.15846 7.13823 9.1768 6.48073 10.431 6.22573C11.7768 5.95156 13.0751 6.09989 14.2835 6.77656C15.6418 7.53823 16.5618 8.66156 16.9676 10.1807C17.0001 10.2999 17.0518 10.3266 17.1626 10.3232C17.9018 10.3074 18.611 10.4291 19.2826 10.7507C19.9735 11.0807 20.5418 11.5599 21.0068 12.1624C21.7468 13.1182 22.0176 14.2091 21.9001 15.4007C21.6943 17.4857 20.0876 19.1766 18.0293 19.4824C17.7426 19.5249 17.451 19.5399 17.161 19.5416C15.5268 19.5491 13.8918 19.5466 12.256 19.5466V19.5466Z" fill="#7F7F7F"/>
</svg>
