<svg width="25" height="25" viewBox="0 0 25 25" fill="none" xmlns="http://www.w3.org/2000/svg">
<path fill-rule="evenodd" clip-rule="evenodd" d="M12.4762 15.2983C13.2745 16.1075 14.0529 16.9083 14.4562 17.9875C14.9004 19.1692 14.1695 20.3642 13.0954 20.69C11.9129 21.0508 10.6887 20.3517 10.4062 19.1742C10.2779 18.6333 10.377 18.1208 10.6245 17.6342C11.0804 16.7392 11.7412 16.0058 12.4762 15.2983Z" fill="#3DBAE7"/>
<path fill-rule="evenodd" clip-rule="evenodd" d="M15.5747 19.0188C15.6218 18.5755 15.5693 18.1071 15.3926 17.6365C14.9071 16.3383 13.9812 15.3999 13.2068 14.615L12.4944 13.8929L11.7827 14.5779C11.0212 15.3109 10.2649 16.1369 9.7332 17.1809C9.45467 17.7286 9.29555 18.3493 9.36682 19.0183H7.58338C6.99422 19.0183 6.41921 18.9383 5.86338 18.7283C4.68921 18.2858 3.81088 17.5158 3.28255 16.3742C2.63338 14.97 2.64505 13.5625 3.38755 12.2C4.01338 11.0517 4.97588 10.2925 6.25422 9.96082C6.38671 9.92582 6.44005 9.86665 6.47171 9.73582C6.66421 8.93749 7.01255 8.21165 7.54588 7.58082C8.36671 6.60999 9.38505 5.95249 10.6392 5.69749C11.985 5.42499 13.2834 5.57249 14.4917 6.24999C15.85 7.01165 16.77 8.13499 17.1759 9.65499C17.2084 9.77415 17.26 9.79999 17.3709 9.79749C18.11 9.78165 18.8192 9.90415 19.4909 10.225C20.1817 10.555 20.75 11.0342 21.215 11.6367C21.955 12.5925 22.2259 13.6833 22.1084 14.875C21.9025 16.96 20.2959 18.6508 18.2375 18.9567C17.9509 18.9992 17.6592 19.0142 17.3692 19.0158C16.7712 19.0176 16.173 19.0185 15.5747 19.0188Z" fill="#7F7F7F"/>
</svg>
